<svg width="186" height="125" viewBox="0 0 186 125" fill="none" xmlns="http://www.w3.org/2000/svg">
<path d="M136.816 127H-34L0.183996 -2H171L136.816 127Z" fill="#03C7E8"/>
<path d="M117.806 36.9351L114.389 88.1542C114.389 90.0483 112.27 91.5872 109.647 91.5872H38.8895C36.2742 91.5872 34.1445 90.0483 34.1445 88.1542L37.5618 36.9351C37.5618 35.0411 39.6915 33.5022 42.3067 33.5022H113.065C115.69 33.5022 117.806 35.0411 117.806 36.9351Z" fill="white"/>
<path d="M109.651 91.7611H38.893C36.1806 91.7611 33.9746 90.1422 33.9746 88.1541L37.3919 36.9316C37.3919 34.9435 39.5979 33.328 42.3102 33.328H113.068C115.777 33.328 117.983 34.9435 117.983 36.9316L114.566 88.1541C114.566 90.1596 112.36 91.7611 109.651 91.7611ZM42.3102 33.6762C39.7886 33.6762 37.7387 35.135 37.7387 36.9316L34.3215 88.1541C34.3215 89.9507 36.3714 91.413 38.893 91.413H109.651C112.169 91.413 114.219 89.9507 114.219 88.1541L117.636 36.9316C117.636 35.135 115.586 33.6762 113.068 33.6762H42.3102Z" fill="#002121"/>
<path d="M114.388 36.9351V39.63H37.5752V36.9351C37.5752 35.0411 39.7049 33.5022 42.3201 33.5022H109.661C112.273 33.5022 114.388 35.0411 114.388 36.9351Z" fill="white"/>
<path d="M117.806 39.8042H37.5758C37.5298 39.8042 37.4857 39.7858 37.4531 39.7532C37.4206 39.7206 37.4023 39.6763 37.4023 39.6301V36.9318C37.4023 34.9438 39.6083 33.3282 42.3207 33.3282H113.079C115.788 33.3282 117.994 34.9438 117.994 36.9318V39.6301C117.994 39.6542 117.989 39.678 117.979 39.7001C117.97 39.7222 117.956 39.742 117.938 39.7584C117.92 39.7748 117.9 39.7873 117.877 39.7952C117.854 39.803 117.83 39.8061 117.806 39.8042ZM37.7457 39.456H117.636V36.9318C117.636 35.1352 115.586 33.6764 113.068 33.6764H42.3103C39.7887 33.6764 37.7388 35.1352 37.7388 36.9318L37.7457 39.456Z" fill="#002121"/>
<path d="M101.787 43.4041H47.5498V48.8216H101.787V43.4041Z" fill="white"/>
<path d="M101.788 48.9957H47.5504C47.5044 48.9957 47.4603 48.9773 47.4277 48.9447C47.3952 48.912 47.377 48.8677 47.377 48.8216V43.4041C47.377 43.3579 47.3952 43.3136 47.4277 43.281C47.4603 43.2483 47.5044 43.23 47.5504 43.23H101.788C101.833 43.2309 101.877 43.2495 101.909 43.282C101.942 43.3144 101.96 43.3582 101.961 43.4041V48.8216C101.961 48.8677 101.943 48.912 101.91 48.9447C101.878 48.9773 101.834 48.9957 101.788 48.9957ZM47.7238 48.6475H101.614V43.5781H47.7238V48.6475Z" fill="#002121"/>
<path d="M101.787 43.4041H94.4307V48.8216H101.787V43.4041Z" fill="#D23228"/>
<path d="M101.787 48.9957H94.4303C94.3843 48.9957 94.3402 48.9773 94.3076 48.9447C94.2751 48.912 94.2568 48.8677 94.2568 48.8216V43.4041C94.2568 43.3579 94.2751 43.3136 94.3076 43.281C94.3402 43.2483 94.3843 43.23 94.4303 43.23H101.787C101.833 43.2309 101.876 43.2495 101.909 43.282C101.941 43.3144 101.96 43.3582 101.96 43.4041V48.8216C101.96 48.8677 101.942 48.912 101.91 48.9447C101.877 48.9773 101.833 48.9957 101.787 48.9957ZM94.6037 48.6475H101.614V43.5781H94.6176L94.6037 48.6475Z" fill="#002121"/>
<path d="M112.707 52.575H84.7161L81.2988 80.6721H109.29L112.707 52.575Z" fill="white"/>
<path d="M72.7453 53.2748H41.6084V53.9711H72.7453V53.2748Z" fill="#03C7E8"/>
<path d="M62.319 55.3567H41.6084V56.053H62.319V55.3567Z" fill="#03C7E8"/>
<path d="M74.9999 57.4353H41.6084V58.1316H74.9999V57.4353Z" fill="#D1D3D4"/>
<path d="M70.9591 59.5173H41.6084V60.2137H70.9591V59.5173Z" fill="#D1D3D4"/>
<path d="M46.2602 61.7386H41.8447V62.0868H46.2602V61.7386Z" fill="#D1D3D4"/>
<path d="M49.9916 61.7386H47.5498V62.0868H49.9916V61.7386Z" fill="#D1D3D4"/>
<path d="M53.4777 61.7386H51.1191V62.0868H53.4777V61.7386Z" fill="#D1D3D4"/>
<path d="M66.0303 65.8436H41.6084V66.54H66.0303V65.8436Z" fill="#03C7E8"/>
<path d="M70.9591 67.9255H41.6084V68.6219H70.9591V67.9255Z" fill="#03C7E8"/>
<path d="M61.2403 70.0042H41.6084V70.7005H61.2403V70.0042Z" fill="#D1D3D4"/>
<path d="M67.3449 72.0863H41.6084V72.7826H67.3449V72.0863Z" fill="#D1D3D4"/>
<path d="M44.0507 74.3076H41.8447V74.6558H44.0507V74.3076Z" fill="#D1D3D4"/>
<path d="M49.992 74.3076H45.1777V74.6558H49.992V74.3076Z" fill="#D1D3D4"/>
<path d="M52.7147 74.3076H51.1191V74.6558H52.7147V74.3076Z" fill="#D1D3D4"/>
<path d="M68.9161 78.4125H41.6084V79.1088H68.9161V78.4125Z" fill="#03C7E8"/>
<path d="M72.7453 80.4944H41.6084V81.1907H72.7453V80.4944Z" fill="#03C7E8"/>
<path d="M62.9294 82.573H41.6084V83.2693H62.9294V82.573Z" fill="#D1D3D4"/>
<path d="M59.173 84.6516H41.6084V85.3479H59.173V84.6516Z" fill="#D1D3D4"/>
<path d="M47.5851 86.8765H41.8447V87.2246H47.5851V86.8765Z" fill="#D1D3D4"/>
<path d="M52.2983 86.8765H49.0518V87.2246H52.2983V86.8765Z" fill="#D1D3D4"/>
<path d="M41.5567 37.7115C42.1889 37.7115 42.7013 37.1971 42.7013 36.5625C42.7013 35.928 42.1889 35.4136 41.5567 35.4136C40.9246 35.4136 40.4121 35.928 40.4121 36.5625C40.4121 37.1971 40.9246 37.7115 41.5567 37.7115Z" fill="#03C7E8"/>
<path d="M44.9981 37.7115C45.6303 37.7115 46.1427 37.1971 46.1427 36.5625C46.1427 35.928 45.6303 35.4136 44.9981 35.4136C44.366 35.4136 43.8535 35.928 43.8535 36.5625C43.8535 37.1971 44.366 37.7115 44.9981 37.7115Z" fill="#E6E7E8"/>
<path d="M48.4386 37.7115C49.0707 37.7115 49.5832 37.1971 49.5832 36.5625C49.5832 35.928 49.0707 35.4136 48.4386 35.4136C47.8064 35.4136 47.2939 35.928 47.2939 36.5625C47.2939 37.1971 47.8064 37.7115 48.4386 37.7115Z" fill="#E6E7E8"/>
<path d="M97.5748 47.241C97.2355 47.2404 96.9069 47.1217 96.645 46.9053C96.383 46.6888 96.2039 46.3879 96.1382 46.0537C96.0724 45.7196 96.1241 45.3729 96.2843 45.0727C96.4446 44.7725 96.7035 44.5373 97.0171 44.4072C97.3307 44.2771 97.6795 44.2601 98.0041 44.3592C98.3288 44.4582 98.6092 44.6671 98.7976 44.9503C98.9861 45.2335 99.0709 45.5736 99.0377 45.9125C99.0045 46.2515 98.8552 46.5684 98.6154 46.8093C98.479 46.9468 98.3168 47.0558 98.1382 47.1299C97.9596 47.204 97.7681 47.2418 97.5748 47.241ZM97.5748 44.6472C97.428 44.6465 97.2825 44.6751 97.1467 44.7313C97.011 44.7875 96.8877 44.8701 96.784 44.9745C96.6269 45.1316 96.5198 45.332 96.4763 45.5502C96.4328 45.7685 96.4547 45.9948 96.5394 46.2005C96.6241 46.4062 96.7677 46.5821 96.952 46.7058C97.1363 46.8296 97.3531 46.8956 97.5748 46.8956C97.7966 46.8956 98.0133 46.8296 98.1976 46.7058C98.382 46.5821 98.5256 46.4062 98.6102 46.2005C98.6949 45.9948 98.7169 45.7685 98.6733 45.5502C98.6298 45.332 98.5227 45.1316 98.3656 44.9745C98.2619 44.8701 98.1387 44.7875 98.0029 44.7313C97.8672 44.6751 97.7216 44.6465 97.5748 44.6472Z" fill="white"/>
<path d="M99.5557 47.9304C99.5088 47.9302 99.4639 47.9115 99.4308 47.8781L98.366 46.8093C98.3342 46.7767 98.3164 46.733 98.3164 46.6874C98.3164 46.6418 98.3342 46.5981 98.366 46.5655C98.3821 46.5492 98.4013 46.5363 98.4224 46.5274C98.4435 46.5186 98.4662 46.514 98.4891 46.514C98.512 46.514 98.5347 46.5186 98.5558 46.5274C98.5769 46.5363 98.5961 46.5492 98.6122 46.5655L99.6771 47.6344C99.7008 47.6587 99.717 47.6895 99.7235 47.723C99.73 47.7564 99.7265 47.7911 99.7136 47.8226C99.7007 47.8541 99.6788 47.8811 99.6507 47.9002C99.6227 47.9194 99.5896 47.9299 99.5557 47.9304Z" fill="white"/>
<path d="M122.772 62.2817H94.2923L90.875 83.4887H119.355L122.772 62.2817Z" fill="white"/>
<path d="M119.356 83.6629H90.8756C90.8296 83.6629 90.7855 83.6446 90.7529 83.6119C90.7204 83.5793 90.7021 83.535 90.7021 83.4888L94.1194 62.2819C94.1194 62.2357 94.1377 62.1914 94.1702 62.1588C94.2027 62.1261 94.2468 62.1078 94.2928 62.1078H122.773C122.819 62.1087 122.862 62.1273 122.895 62.1598C122.927 62.1922 122.945 62.236 122.946 62.2819L119.529 83.4888C119.529 83.535 119.511 83.5793 119.478 83.6119C119.446 83.6446 119.402 83.6629 119.356 83.6629ZM91.049 83.3147H119.182L122.599 62.456H94.4663L91.049 83.3147Z" fill="#002121"/>
<path d="M95.223 79.6511H95.1872C92.6218 79.5708 91.9169 77.1839 91.9097 77.1594C91.9034 77.1365 91.9017 77.1125 91.9049 77.089C91.908 77.0654 91.9158 77.0427 91.928 77.022C91.9401 77.0014 91.9563 76.9834 91.9755 76.9689C91.9948 76.9544 92.0168 76.9437 92.0403 76.9375C92.0638 76.9313 92.0883 76.9297 92.1125 76.9328C92.1366 76.9358 92.1599 76.9435 92.181 76.9553C92.2021 76.9672 92.2206 76.983 92.2354 77.0018C92.2503 77.0206 92.2612 77.0421 92.2675 77.0651C92.2926 77.1559 92.9152 79.2283 95.2123 79.3017H95.223C96.3536 79.3017 97.1515 76.3417 97.8528 73.7102C98.5684 70.9843 99.2841 68.4087 100.447 68.1431C100.677 68.0804 100.918 68.0645 101.155 68.0963C101.392 68.1282 101.62 68.2071 101.824 68.3283C102.862 68.9679 103.256 70.7572 103.732 72.826C103.967 74.0001 104.28 75.1581 104.669 76.2927C105.292 77.9772 106.458 79.0221 107.582 78.8963C108.973 78.739 110.025 76.8379 110.387 73.808C111.421 65.1691 114.491 64.2221 115.754 64.2151H115.8C118.963 64.2151 120.598 65.8751 121.629 70.1246C121.634 70.1476 121.635 70.1713 121.631 70.1945C121.627 70.2178 121.618 70.24 121.606 70.2599C121.58 70.3002 121.539 70.3289 121.491 70.3395C121.444 70.3502 121.394 70.342 121.353 70.3168C121.311 70.2915 121.282 70.2513 121.271 70.205C120.273 66.0987 118.788 64.5646 115.79 64.5646H115.747C113.296 64.5646 111.417 68.0592 110.737 73.85C110.351 77.0965 109.213 79.064 107.617 79.2423C106.333 79.3925 105.009 78.2498 104.329 76.4116C103.936 75.2675 103.618 74.1003 103.377 72.9169C102.948 71.0053 102.544 69.202 101.628 68.6359C101.463 68.5392 101.28 68.4769 101.09 68.4528C100.9 68.4288 100.706 68.4435 100.522 68.4961C99.5631 68.7162 98.8368 71.4246 98.1963 73.8115C97.3698 76.8134 96.622 79.6511 95.223 79.6511Z" fill="#D23228"/>
<path d="M116.702 75.0353H112.723C112.677 75.0353 112.633 75.017 112.601 74.9843C112.568 74.9517 112.55 74.9074 112.55 74.8612C112.55 74.815 112.568 74.7708 112.601 74.7381C112.633 74.7055 112.677 74.6871 112.723 74.6871H116.702C116.748 74.6871 116.792 74.7055 116.824 74.7381C116.857 74.7708 116.875 74.815 116.875 74.8612C116.875 74.9074 116.857 74.9517 116.824 74.9843C116.792 75.017 116.748 75.0353 116.702 75.0353Z" fill="#D1D3D4"/>
<path d="M116.702 76.6822H112.723C112.677 76.6822 112.633 76.6638 112.601 76.6312C112.568 76.5985 112.55 76.5542 112.55 76.5081C112.55 76.4619 112.568 76.4176 112.601 76.385C112.633 76.3523 112.677 76.334 112.723 76.334H116.702C116.748 76.334 116.792 76.3523 116.824 76.385C116.857 76.4176 116.875 76.4619 116.875 76.5081C116.875 76.5542 116.857 76.5985 116.824 76.6312C116.792 76.6638 116.748 76.6822 116.702 76.6822Z" fill="#D1D3D4"/>
<path d="M114.711 78.3219H112.723C112.677 78.3219 112.633 78.3036 112.601 78.2709C112.568 78.2383 112.55 78.194 112.55 78.1478C112.55 78.1017 112.568 78.0574 112.601 78.0247C112.633 77.9921 112.677 77.9738 112.723 77.9738H114.711C114.757 77.9738 114.801 77.9921 114.833 78.0247C114.866 78.0574 114.884 78.1017 114.884 78.1478C114.884 78.194 114.866 78.2383 114.833 78.2709C114.801 78.3036 114.757 78.3219 114.711 78.3219Z" fill="#D1D3D4"/>
<path d="M99.4721 64.4718H95.4937C95.4477 64.4718 95.4036 64.4535 95.3711 64.4208C95.3386 64.3882 95.3203 64.3439 95.3203 64.2977C95.3203 64.2516 95.3386 64.2073 95.3711 64.1746C95.4036 64.142 95.4477 64.1237 95.4937 64.1237H99.4721C99.5181 64.1237 99.5622 64.142 99.5948 64.1746C99.6273 64.2073 99.6456 64.2516 99.6456 64.2977C99.6447 64.3436 99.6261 64.3874 99.5938 64.4199C99.5614 64.4523 99.5178 64.4709 99.4721 64.4718Z" fill="#D1D3D4"/>
<path d="M99.4721 66.136H95.4937C95.4477 66.136 95.4036 66.1177 95.3711 66.085C95.3386 66.0524 95.3203 66.0081 95.3203 65.9619C95.3203 65.9158 95.3386 65.8715 95.3711 65.8388C95.4036 65.8062 95.4477 65.7878 95.4937 65.7878H99.4721C99.5178 65.7887 99.5614 65.8074 99.5938 65.8398C99.6261 65.8723 99.6447 65.916 99.6456 65.9619C99.6456 66.0081 99.6273 66.0524 99.5948 66.085C99.5622 66.1177 99.5181 66.136 99.4721 66.136Z" fill="#D1D3D4"/>
<path d="M97.4812 67.7691H95.4937C95.4477 67.7691 95.4036 67.7507 95.3711 67.7181C95.3386 67.6854 95.3203 67.6412 95.3203 67.595C95.3203 67.5488 95.3386 67.5045 95.3711 67.4719C95.4036 67.4392 95.4477 67.4209 95.4937 67.4209H97.4812C97.5272 67.4209 97.5713 67.4392 97.6038 67.4719C97.6364 67.5045 97.6546 67.5488 97.6546 67.595C97.6546 67.6412 97.6364 67.6854 97.6038 67.7181C97.5713 67.7507 97.5272 67.7691 97.4812 67.7691Z" fill="#D1D3D4"/>
<path d="M43.1571 66.5403L39.7041 64.7689L35.5086 73.0094L38.9616 74.7808L43.1571 66.5403Z" fill="#002121"/>
<path d="M38.9582 74.9552C38.9314 74.9548 38.9052 74.9476 38.8819 74.9343L35.4134 73.1656C35.3928 73.1556 35.3745 73.1416 35.3594 73.1243C35.3444 73.1071 35.333 73.087 35.3259 73.0652C35.3187 73.0434 35.3161 73.0205 35.318 72.9976C35.3199 72.9748 35.3264 72.9526 35.3371 72.9323L39.534 64.6912C39.5439 64.6705 39.5579 64.6521 39.5752 64.6371C39.5925 64.6222 39.6127 64.6109 39.6346 64.6041C39.6768 64.5867 39.7241 64.5867 39.7664 64.6041L43.2349 66.3763C43.2551 66.3866 43.2731 66.4008 43.2878 66.4182C43.3025 66.4356 43.3136 66.4558 43.3203 66.4775C43.3271 66.4992 43.3295 66.5221 43.3273 66.5448C43.3252 66.5675 43.3185 66.5895 43.3077 66.6096L39.1212 74.8612C39.099 74.9004 39.0632 74.9302 39.0206 74.9447C39.0009 74.9529 38.9795 74.9564 38.9582 74.9552ZM35.7394 72.9358L38.8854 74.5478L42.9366 66.6165L39.7941 65.001L35.7394 72.9358Z" fill="#002121"/>
<path d="M39.9732 72.3475L36.8784 70.7599C36.4537 70.542 35.9334 70.711 35.7163 71.1373L28.5075 85.2963C28.2905 85.7226 28.4588 86.2449 28.8836 86.4628L31.9783 88.0504C32.403 88.2683 32.9233 88.0993 33.1404 87.6729L40.3492 73.514C40.5662 73.0876 40.3979 72.5654 39.9732 72.3475Z" fill="white"/>
<path d="M32.3716 88.3213C32.2085 88.3216 32.0478 88.2822 31.9033 88.2064L28.8024 86.6187C28.5604 86.4923 28.3775 86.2755 28.2931 86.015C28.2088 85.7545 28.2298 85.4712 28.3515 85.2261L35.5626 71.066C35.6885 70.8231 35.9045 70.6395 36.1641 70.5548C36.4236 70.4701 36.7058 70.4912 36.95 70.6134L40.0474 72.2011C40.2895 72.3275 40.4724 72.5443 40.5567 72.8048C40.641 73.0653 40.6201 73.3486 40.4983 73.5937L33.2942 87.7538C33.207 87.9242 33.0749 88.0673 32.9121 88.1674C32.7494 88.2675 32.5624 88.3207 32.3716 88.3213ZM36.4852 70.8397C36.4132 70.8391 36.3417 70.8509 36.2736 70.8745C36.1871 70.9032 36.107 70.9487 36.038 71.0084C35.9689 71.0682 35.9123 71.141 35.8713 71.2227L28.6602 85.3793C28.5788 85.5429 28.5648 85.7322 28.6212 85.9062C28.6777 86.0801 28.8001 86.2248 28.962 86.3089L32.0594 87.8965C32.222 87.9785 32.4103 87.9931 32.5835 87.9371C32.7567 87.8811 32.9011 87.759 32.9855 87.5971L40.1965 73.4475C40.278 73.2838 40.292 73.0946 40.2355 72.9206C40.1791 72.7467 40.0567 72.602 39.8948 72.5179L36.7974 70.9303C36.7025 70.8744 36.5952 70.8433 36.4852 70.8397Z" fill="#002121"/>
<path d="M49.3743 49.5596C47.6191 48.6577 45.6367 48.2987 43.6782 48.5281C41.7197 48.7575 39.873 49.5651 38.3718 50.8485C36.8707 52.1319 35.7826 53.8334 35.2453 55.7379C34.708 57.6423 34.7456 59.6639 35.3534 61.5468C35.9611 63.4297 37.1118 65.0894 38.6596 66.3156C40.2074 67.5418 42.0829 68.2796 44.0486 68.4354C46.0143 68.5913 47.9819 68.1582 49.7023 67.1911C51.4227 66.224 52.8187 64.7663 53.7134 63.0024C54.9109 60.6417 55.1266 57.9005 54.3131 55.3804C53.4996 52.8602 51.7235 50.7669 49.3743 49.5596ZM41.4625 65.0914C40.1559 64.4211 39.0766 63.3769 38.3612 62.0908C37.6458 60.8047 37.3264 59.3346 37.4434 57.8663C37.5604 56.398 38.1085 54.9975 39.0185 53.8419C39.9284 52.6864 41.1593 51.8276 42.5555 51.3742C43.9516 50.9209 45.4504 50.8933 46.8622 51.295C48.274 51.6966 49.5354 52.5095 50.4869 53.6309C51.4385 54.7522 52.0374 56.1316 52.2079 57.5946C52.3784 59.0576 52.1129 60.5385 51.445 61.85C50.5493 63.6085 48.9945 64.938 47.1225 65.5458C45.2505 66.1537 43.2145 65.9903 41.4625 65.0914Z" fill="white"/>
<path d="M44.831 68.6465C42.2701 68.6533 39.8009 67.6903 37.9163 65.9499C36.0317 64.2095 34.8703 61.8196 34.6639 59.2574C34.4576 56.6952 35.2216 54.1491 36.8033 52.1275C38.385 50.1058 40.6681 48.7573 43.1968 48.3512C45.7255 47.9451 48.3138 48.5112 50.4449 49.9365C52.576 51.3619 54.0933 53.5416 54.6937 56.0405C55.2941 58.5394 54.9335 61.1737 53.684 63.4175C52.4344 65.6613 50.3878 67.3495 47.9526 68.1451C46.9448 68.476 45.8913 68.6452 44.831 68.6465ZM44.8518 48.6337C43.8248 48.6351 42.8044 48.7972 41.8272 49.1142C39.4947 49.8762 37.534 51.4927 36.3362 53.6414C35.1384 55.7901 34.7914 58.3131 35.3644 60.7072C35.9375 63.1013 37.3885 65.1906 39.428 66.5585C41.4676 67.9264 43.9459 68.4723 46.3687 68.0875C48.7915 67.7026 50.9807 66.4152 52.4998 64.482C54.019 62.5487 54.7563 60.1118 54.5649 57.6571C54.3735 55.2023 53.2674 52.9102 51.4671 51.2378C49.6668 49.5654 47.3047 48.6355 44.8518 48.6337ZM44.8275 66.0839C43.6311 66.0838 42.4519 65.7986 41.3867 65.2518C39.7285 64.4033 38.4382 62.9734 37.7604 61.2334C37.0827 59.4934 37.0646 57.5642 37.7097 55.8117C38.3548 54.0592 39.6181 52.6052 41.2602 51.7256C42.9022 50.846 44.8087 50.6018 46.6182 51.0394C48.4277 51.477 50.0142 52.566 51.077 54.0997C52.1398 55.6335 52.6049 57.5055 52.3841 59.3606C52.1633 61.2157 51.2719 62.9249 49.8791 64.1642C48.4862 65.4035 46.6887 66.0866 44.8275 66.0839ZM41.5497 64.942C42.8248 65.5948 44.2639 65.8539 45.6855 65.6866C47.1071 65.5193 48.4475 64.9332 49.5376 64.0021C50.6277 63.071 51.4186 61.8367 51.8106 60.4548C52.2026 59.073 52.1782 57.6056 51.7403 56.2377C51.2989 54.8697 50.4634 53.6637 49.3394 52.7722C48.2154 51.8806 46.8533 51.3435 45.4253 51.2287C43.9973 51.114 42.5675 51.4267 41.3165 52.1274C40.0655 52.8281 39.0495 53.8853 38.3969 55.1654C37.5272 56.8822 37.3707 58.875 37.9616 60.7074C38.5525 62.5397 39.8428 64.0624 41.5497 64.942Z" fill="#002121"/>
</svg>
