<svg width="236" height="157" viewBox="0 0 236 157" fill="none" xmlns="http://www.w3.org/2000/svg">
<path d="M234.6 77.1897C234.778 74.9031 234.734 72.6047 234.467 70.3267C233.392 61.7346 229.249 53.8178 222.8 48.0293C216.162 42.2046 211.494 43.9719 203.337 42.5213C200.04 41.9441 196.646 42.37 193.595 43.7436C194.023 31.1664 189.074 20.9161 179.125 13.1915C158.733 -2.60365 134.801 3.95743 118.879 21.9175C111.563 8.62603 100.375 -1.12354 84.1276 1.64522C70.1594 4.0237 58.4921 16.3064 56.8401 30.3637C50.9401 28.1546 44.1035 29.1855 38.4026 31.9469C32.7018 34.7083 27.8859 39.0014 23.3724 43.4491C17.9296 48.8025 12.6639 54.5904 9.64013 61.5933C7.58988 66.3429 7.5825 71.203 7.5235 76.2692C7.5235 77.1087 9.1755 89.8332 10.6505 88.5961C-11.7031 107.337 10.0163 141.946 33.3065 147.101C43.6315 149.391 55.1586 146.902 63.0056 139.796C72.572 146.241 83.2909 150.789 94.578 153.191C110.176 156.512 126.903 157.786 142.28 152.734C146.188 151.453 149.61 149.487 153.342 147.8C157.855 145.753 158.578 147.55 163.276 149.06C171.167 151.593 179.907 150.775 187.732 148.397C196.095 145.856 204.938 140.127 205.55 131.416C214.473 132.027 223.847 128.117 228.744 120.65C233.641 113.184 233.169 102.285 226.834 95.9892C227.992 97.138 233.383 85.2088 233.626 84.0968C234.12 81.8213 234.445 79.5127 234.6 77.1897Z" fill="#FBFAF9"/>
<path d="M119.712 156.438C111.227 156.338 102.776 155.351 94.4969 153.493C83.2633 151.085 72.588 146.575 63.0351 140.201C55.3578 147.02 43.9634 149.774 33.2254 147.403C19.2129 144.303 5.45851 130.341 1.84476 115.614C-0.743869 105.128 2.11763 95.5548 9.89088 88.7655C8.30525 86.9761 7.14738 76.7037 7.15476 76.2471V75.8937C7.21376 70.8716 7.27276 66.1367 9.30088 61.4239C12.3836 54.3179 17.76 48.427 23.1143 43.184C27.554 38.8541 32.4436 34.3843 38.233 31.5935C44.4649 28.5817 51.1024 27.9116 56.5378 29.8336C58.3963 15.8425 70.152 3.64078 84.0686 1.2623C98.1991 -1.14564 110.257 5.7689 118.952 21.2695C127.021 12.3447 137.058 6.38009 147.258 4.53179C158.556 2.48468 169.619 5.37862 179.346 12.897C189.317 20.6215 194.236 30.8056 193.978 43.1766C196.961 41.9579 200.229 41.6056 203.403 42.1604C205.456 42.5156 207.527 42.7614 209.606 42.8968C214.422 43.2576 218.22 43.5374 223.043 47.7937C229.556 53.6455 233.744 61.6404 234.843 70.3193C235.112 72.6218 235.157 74.9449 234.976 77.256H234.607H234.976C234.806 79.5864 234.47 81.902 233.973 84.1852C233.781 85.0541 229.592 94.6785 227.549 96.2249C233.375 102.521 234.069 113.161 229.024 120.857C224.304 128.058 215.248 132.329 205.859 131.814C205.269 137.602 200.247 144.98 187.805 148.75C181.544 150.65 172.178 152.314 163.136 149.413C162.072 149.065 161.028 148.659 160.009 148.198C157.752 147.204 156.617 146.725 153.467 148.139C152.31 148.662 151.159 149.229 150.053 149.774C147.578 151.054 145.018 152.161 142.39 153.088C135.058 155.404 127.402 156.535 119.712 156.438ZM63.0056 139.398C63.0783 139.401 63.1492 139.421 63.2121 139.457C72.7435 145.867 83.4153 150.396 94.6518 152.8C113.502 156.814 129.049 156.666 142.169 152.359C144.754 151.442 147.273 150.347 149.706 149.082C150.82 148.537 151.97 147.97 153.143 147.44C156.587 145.871 157.981 146.482 160.289 147.491C161.282 147.942 162.299 148.338 163.335 148.677C172.185 151.526 181.404 149.892 187.569 148.014C199.915 144.266 204.738 136.968 205.137 131.365C205.139 131.316 205.152 131.269 205.173 131.225C205.194 131.182 205.224 131.143 205.26 131.111C205.296 131.078 205.339 131.054 205.385 131.038C205.43 131.022 205.479 131.016 205.527 131.019C214.776 131.652 223.751 127.491 228.39 120.415C233.368 112.837 232.549 102.204 226.532 96.2175C226.497 96.1833 226.469 96.1426 226.451 96.0977C226.432 96.0529 226.422 96.0047 226.422 95.9561C226.422 95.9075 226.432 95.8594 226.451 95.8145C226.469 95.7697 226.497 95.729 226.532 95.6947C226.593 95.6343 226.675 95.5974 226.761 95.5907C226.847 95.584 226.933 95.6078 227.003 95.6579C228.213 95.2603 232.903 85.4812 233.221 83.9938C233.717 81.7456 234.047 79.464 234.209 77.1676C234.39 74.9032 234.345 72.6265 234.076 70.3709C233.015 61.8592 228.914 54.0155 222.527 48.2797C217.895 44.1928 214.208 43.913 209.532 43.5669C207.426 43.4329 205.329 43.1871 203.249 42.8305C200.026 42.2684 196.709 42.6866 193.727 44.0308C193.67 44.0576 193.606 44.069 193.543 44.0639C193.479 44.0589 193.418 44.0375 193.366 44.0019C193.313 43.9664 193.27 43.9178 193.242 43.8609C193.214 43.804 193.201 43.7408 193.204 43.6774C193.624 31.2989 188.779 21.1223 178.874 13.4272C169.338 6.06345 158.438 3.1916 147.368 5.20189C137.206 7.10173 127.175 13.0811 119.159 22.1458C119.118 22.1884 119.069 22.2217 119.014 22.2433C118.959 22.2649 118.901 22.2744 118.842 22.271C118.782 22.2638 118.725 22.2427 118.675 22.2095C118.625 22.1762 118.584 22.1317 118.554 22.0796C107.757 2.47731 93.9069 0.334469 84.194 1.99131C70.4323 4.33297 58.8314 16.542 57.2089 30.3858C57.2027 30.4411 57.1838 30.4942 57.1536 30.541C57.1234 30.5878 57.0828 30.627 57.035 30.6555C56.9872 30.684 56.9333 30.7011 56.8778 30.7054C56.8222 30.7097 56.7664 30.7012 56.7148 30.6804C51.39 28.6775 44.7746 29.2813 38.5575 32.2268C32.8788 35.0029 28.0186 39.3843 23.6305 43.7142C18.3279 48.9277 13.0105 54.7598 9.97938 61.7406C8.01026 66.3135 7.95126 70.9821 7.89226 75.9231V76.2766C7.89226 77.5873 9.42626 87.602 10.4366 88.2942C10.5115 88.2406 10.6037 88.217 10.6951 88.2279C10.7866 88.2388 10.8706 88.2834 10.9308 88.3531C10.9932 88.4288 11.0235 88.5258 11.0152 88.6235C11.007 88.7212 10.9608 88.8118 10.8865 88.8759C2.94363 95.5548 -0.0063681 104.98 2.56013 115.437C6.11488 129.914 19.6554 143.64 33.3876 146.681C43.9929 149.03 55.2471 146.261 62.7549 139.465C62.8277 139.413 62.9168 139.389 63.0056 139.398Z" fill="#D7D3D1"/>
<path d="M84.0096 113.228C76.4798 113.228 76.4355 112.131 75.0343 108.073C72.512 100.754 67.7478 95.1351 62.777 89.3693C44.3395 68.0145 50.6378 34.6053 82.011 28.9867C103.281 25.1502 121.062 36.3873 124.705 57.0573C126.512 67.3149 124.226 77.0498 118.473 85.6727C114.557 91.5637 111.327 97.5062 110.198 104.568C109.461 109.119 109.807 111.807 101.806 111.807C98.9071 111.807 96.0161 112.256 93.1251 112.499C90.0866 112.668 87.0555 113.228 84.0096 113.228Z" fill="#F0CC00"/>
<path d="M84.0096 113.559C76.8042 113.559 76.2068 112.624 74.8498 108.64L74.6876 108.147C72.1358 100.739 67.2314 95.0614 62.4967 89.5681C52.8133 78.3458 49.6052 63.449 54.1334 50.6876C58.3224 38.9057 68.1976 31.0191 81.9446 28.5375C92.8079 26.5862 103.14 28.5375 111.032 34.0235C118.488 39.1781 123.348 47.131 125.044 56.91C126.819 66.9893 124.563 77.3615 118.761 85.7979C115.361 90.8862 111.732 97.0865 110.537 104.546C110.478 104.921 110.427 105.282 110.375 105.643C109.807 109.524 109.439 112.094 101.783 112.094C99.8106 112.13 97.8412 112.27 95.8833 112.513C94.9614 112.609 94.0469 112.705 93.1251 112.786C92.0926 112.874 91.0674 112.985 90.0349 113.103C88.0368 113.369 86.0251 113.522 84.0096 113.559ZM90.0792 28.5449C87.3952 28.5498 84.717 28.7963 82.0773 29.2813C68.6032 31.7113 58.9272 39.4064 54.7898 50.9527C50.3648 63.4711 53.5066 78.0807 63.0203 89.1042C67.7993 94.6491 72.7479 100.378 75.3439 107.926L75.5136 108.419C76.7304 111.991 77.0254 112.837 83.9727 112.837C85.9708 112.799 87.9651 112.649 89.9464 112.388C90.9789 112.27 92.0188 112.153 93.0587 112.064C93.9732 111.991 94.8877 111.895 95.8022 111.792C97.7822 111.548 99.7738 111.408 101.769 111.372C108.782 111.372 109.062 109.428 109.63 105.547C109.682 105.194 109.734 104.811 109.8 104.443C111.009 96.8508 114.69 90.5548 118.134 85.4002C123.997 76.6153 126.069 67.0793 124.307 57.0499C122.618 47.477 117.868 39.723 110.574 34.6421C104.53 30.5596 97.3754 28.431 90.0792 28.5449Z" fill="#231F20"/>
<path d="M80.4664 122.338L107.375 120.119C108.495 120.027 109.328 119.045 109.236 117.927L108.844 113.193C108.752 112.075 107.769 111.243 106.648 111.335L79.74 113.553C78.6196 113.646 77.7864 114.627 77.8789 115.746L78.2703 120.479C78.3628 121.598 79.3461 122.43 80.4664 122.338Z" fill="white"/>
<path d="M80.2927 122.72C79.6882 122.72 79.1059 122.492 78.6617 122.083C78.2175 121.674 77.9441 121.112 77.8958 120.51L77.505 115.783C77.4798 115.468 77.517 115.151 77.6145 114.85C77.7121 114.549 77.868 114.27 78.0735 114.029C78.2789 113.789 78.5299 113.591 78.8119 113.447C79.094 113.303 79.4017 113.216 79.7175 113.191L106.621 110.982C107.259 110.933 107.889 111.138 108.376 111.552C108.862 111.966 109.165 112.555 109.217 113.191L109.608 117.918C109.634 118.234 109.596 118.551 109.499 118.852C109.401 119.153 109.245 119.431 109.04 119.672C108.834 119.913 108.583 120.111 108.301 120.255C108.019 120.398 107.712 120.485 107.396 120.51L80.4918 122.72H80.2927ZM106.806 111.703H106.673L79.7691 113.913C79.5506 113.93 79.3378 113.991 79.1427 114.091C78.9477 114.191 78.7743 114.328 78.6325 114.495C78.4907 114.662 78.3832 114.855 78.3163 115.063C78.2494 115.272 78.2243 115.491 78.2425 115.709L78.6333 120.437C78.6709 120.877 78.8812 121.284 79.2184 121.569C79.5555 121.855 79.9921 121.996 80.4328 121.961L107.337 119.752C107.555 119.734 107.768 119.674 107.963 119.574C108.158 119.474 108.332 119.337 108.473 119.17C108.615 119.003 108.723 118.81 108.79 118.601C108.857 118.393 108.882 118.173 108.863 117.955L108.465 113.228C108.43 112.812 108.24 112.425 107.933 112.143C107.626 111.861 107.223 111.704 106.806 111.703Z" fill="#231F20"/>
<path d="M81.1976 131.116L108.106 128.898C109.226 128.805 110.06 127.824 109.967 126.705L109.576 121.972C109.483 120.853 108.5 120.021 107.38 120.113L80.4712 122.332C79.3508 122.424 78.5176 123.406 78.6101 124.524L79.0015 129.258C79.094 130.377 80.0773 131.208 81.1976 131.116Z" fill="white"/>
<path d="M81.0227 131.505C80.4182 131.505 79.8358 131.277 79.3916 130.868C78.9474 130.459 78.674 129.897 78.6258 129.295L78.2349 124.561C78.2097 124.246 78.247 123.929 78.3447 123.628C78.4423 123.328 78.5984 123.05 78.8039 122.81C79.0094 122.57 79.2604 122.372 79.5424 122.229C79.8245 122.086 80.132 122 80.4474 121.976L107.351 119.767C107.667 119.742 107.985 119.779 108.286 119.876C108.587 119.974 108.867 120.129 109.108 120.334C109.349 120.54 109.547 120.79 109.691 121.072C109.835 121.353 109.922 121.661 109.947 121.976L110.338 126.711C110.364 127.026 110.326 127.343 110.229 127.644C110.131 127.945 109.975 128.224 109.77 128.464C109.564 128.705 109.313 128.903 109.031 129.047C108.749 129.191 108.442 129.278 108.126 129.303L81.2218 131.512H81.0227V131.505ZM107.536 120.488H107.396L80.4917 122.697C80.0517 122.735 79.6447 122.945 79.3598 123.282C79.075 123.619 78.9357 124.055 78.9724 124.494L79.3633 129.229C79.4008 129.668 79.6114 130.075 79.9488 130.359C80.2862 130.644 80.7228 130.783 81.1628 130.746L108.067 128.537C108.285 128.519 108.498 128.459 108.692 128.359C108.887 128.259 109.06 128.121 109.201 127.954C109.342 127.787 109.449 127.594 109.515 127.386C109.581 127.177 109.605 126.958 109.586 126.74L109.195 122.005C109.157 121.592 108.965 121.207 108.659 120.927C108.352 120.647 107.952 120.49 107.536 120.488Z" fill="#231F20"/>
<path d="M82.6379 131.011C82.9108 134.325 88.5379 136.563 95.1386 136.011C101.739 135.459 106.939 132.329 106.651 129.03L82.6379 131.011Z" fill="#231F20"/>
<path d="M93.1103 136.468C87.1366 136.468 82.5346 134.259 82.2691 131.041C82.2629 130.943 82.2948 130.847 82.3581 130.773C82.4214 130.699 82.5111 130.652 82.6083 130.643L106.621 128.692C106.719 128.685 106.815 128.717 106.889 128.78C106.963 128.844 107.01 128.933 107.02 129.03C107.315 132.594 102.108 135.842 95.1679 136.394C94.4698 136.443 93.7839 136.468 93.1103 136.468ZM83.0582 131.313C83.3458 132.624 84.5996 133.773 86.6424 134.59C89.3513 135.564 92.245 135.916 95.1089 135.621C101.267 135.113 106.135 132.366 106.289 129.399L83.0582 131.313Z" fill="#231F20"/>
<path d="M85.4109 108.751C85.3618 108.748 85.3137 108.735 85.2696 108.714C85.2254 108.692 85.186 108.662 85.1537 108.625C85.1214 108.588 85.0968 108.545 85.0815 108.498C85.0661 108.451 85.0603 108.402 85.0643 108.353C85.6565 100.709 85.2923 93.0207 83.9802 85.4665C82.0007 85.0257 80.0817 84.3483 78.2646 83.4488C75.0805 81.9953 72.3859 79.6527 70.5061 76.7037C68.5959 73.4784 68.2936 69.5977 69.6506 66.5785C69.8424 66.0598 70.1606 65.597 70.5765 65.2319C70.9924 64.8667 71.4929 64.6108 72.0327 64.4872C74.3116 64.0307 76.7674 66.1073 77.4607 66.7553C81.7972 70.7759 83.1837 77.6904 84.2973 83.2427L84.4374 83.979L84.6144 84.8848C88.2345 85.6284 91.9683 85.6284 95.5884 84.8848C95.6715 83.0481 95.8686 81.2184 96.1784 79.4062C97.1888 73.5152 98.7228 69.1338 100.751 66.4313C101.399 65.6881 102.194 65.0858 103.085 64.6616C103.976 64.2374 104.945 64.0003 105.931 63.9651C106.918 63.9299 107.901 64.0973 108.82 64.4569C109.74 64.8165 110.575 65.3607 111.275 66.0557C112.079 67.0836 112.609 68.2977 112.817 69.5852C113.024 70.8727 112.903 72.1917 112.462 73.4195C111.577 75.8135 110.061 77.9249 108.074 79.5313C104.704 82.4733 100.646 84.5197 96.2743 85.4812C96.0088 92.5725 97.2109 99.7153 98.3836 106.674L98.5311 107.543C98.5462 107.639 98.523 107.738 98.4666 107.818C98.4101 107.897 98.3248 107.952 98.2287 107.97C98.1329 107.985 98.0352 107.962 97.9565 107.905C97.8778 107.849 97.8246 107.764 97.8083 107.668L97.6608 106.799C96.4882 99.8626 95.2934 92.7345 95.5294 85.6432C91.9648 86.3587 88.2945 86.3712 84.7251 85.68C86.0085 93.2004 86.3602 100.85 85.7723 108.456C85.7541 108.539 85.7085 108.613 85.6429 108.666C85.5773 108.719 85.4956 108.749 85.4109 108.751ZM72.6669 65.1574C72.4937 65.1595 72.3209 65.1768 72.1507 65.2089C71.728 65.3135 71.3378 65.5208 71.0148 65.8125C70.6918 66.1041 70.4461 66.471 70.2996 66.8805C69.6789 68.4079 69.4296 70.0603 69.5719 71.7025C69.7142 73.3447 70.2441 74.9298 71.1182 76.3281C72.9304 79.1532 75.5189 81.3977 78.5743 82.7935C80.2443 83.6139 82.0005 84.2462 83.8106 84.6786C83.7737 84.4871 83.7294 84.2883 83.6926 84.0969L83.5524 83.3605C82.4536 77.9113 81.0966 71.1367 76.9149 67.2707C75.7792 66.2177 74.1124 65.1574 72.6669 65.1574ZM106.194 64.6272H105.921C105.041 64.6295 104.173 64.8253 103.377 65.2008C102.582 65.5762 101.879 66.1221 101.319 66.7995C99.3644 69.4136 97.8747 73.6698 96.8938 79.4577C96.6059 81.1785 96.4163 82.9142 96.3259 84.6565C100.493 83.6973 104.358 81.7271 107.58 78.9202C109.466 77.3962 110.907 75.3948 111.754 73.1249C112.15 72.0215 112.262 70.8367 112.08 69.679C111.898 68.5212 111.429 67.4274 110.715 66.4975C110.137 65.884 109.435 65.4001 108.655 65.0776C107.876 64.7552 107.037 64.6016 106.194 64.6272Z" fill="#002121"/>
<path d="M121.268 110.474C121.57 109.303 121.858 108.139 122.168 106.976C122.33 106.372 122.522 105.776 122.713 105.179C122.81 104.805 123.035 104.476 123.348 104.249C123.662 104.021 124.045 103.91 124.432 103.935C125.361 103.935 126.283 104.082 127.212 104.156C127.7 104.226 128.194 104.251 128.687 104.229C129.056 104.212 129.407 104.069 129.683 103.824C130.656 102.734 131.585 101.615 132.5 100.466C132.651 100.256 132.748 100.011 132.781 99.7541C132.815 99.4971 132.784 99.2359 132.692 98.9937C132.375 97.8965 132.013 96.7845 131.696 95.7242C131.561 95.3023 131.487 94.8635 131.475 94.4208C131.474 94.2582 131.506 94.0971 131.568 93.9467C131.63 93.7964 131.721 93.6597 131.836 93.5445C133.446 92.3032 135.234 91.3103 137.139 90.599C137.419 90.4843 137.73 90.4654 138.022 90.5453C138.314 90.6252 138.571 90.7995 138.754 91.0408C139.536 91.9466 140.347 92.8302 141.099 93.7581C141.344 94.1153 141.688 94.393 142.089 94.5566C142.49 94.7203 142.931 94.7626 143.356 94.6785C144.558 94.4944 145.782 94.3766 146.992 94.222C147.214 94.1935 147.426 94.1116 147.61 93.9834C147.794 93.8551 147.943 93.6843 148.046 93.4856C148.43 92.8081 148.784 92.116 149.16 91.4385C149.536 90.761 149.794 90.2677 150.141 89.6933C150.284 89.3985 150.527 89.1634 150.826 89.0288C151.125 88.8943 151.462 88.8688 151.778 88.9569C153.511 89.4061 155.244 89.87 156.941 90.3781C157.267 90.477 157.549 90.6859 157.739 90.9692C157.929 91.2525 158.014 91.5927 157.981 91.9319C157.981 92.8744 157.826 93.8096 157.752 94.7522C157.715 95.194 157.686 95.6358 157.686 96.085C157.678 96.3668 157.736 96.6465 157.855 96.9021C157.974 97.1576 158.151 97.3821 158.371 97.5577C159.33 98.2941 160.296 99.082 161.218 99.8847C161.486 100.129 161.817 100.296 162.173 100.366C162.529 100.436 162.898 100.407 163.239 100.282C164.426 99.9289 165.599 99.5459 166.786 99.1851C167.171 99.0214 167.604 99.0128 167.994 99.1611C168.385 99.3094 168.703 99.6031 168.881 99.9804C169.685 101.365 170.459 102.757 171.211 104.17C171.35 104.357 171.45 104.57 171.504 104.797C171.558 105.024 171.565 105.259 171.525 105.488C171.485 105.718 171.399 105.936 171.271 106.131C171.144 106.326 170.978 106.494 170.784 106.622C170.201 107.16 169.567 107.639 168.969 108.162C168.542 108.53 168.121 108.898 167.723 109.325C167.552 109.492 167.421 109.695 167.341 109.919C167.26 110.144 167.232 110.384 167.258 110.621C167.391 111.873 167.509 113.132 167.671 114.391C167.705 114.733 167.829 115.06 168.03 115.339C168.23 115.619 168.501 115.84 168.814 115.982C169.552 116.343 170.289 116.681 170.983 117.05C171.435 117.269 171.873 117.515 172.295 117.786C172.609 117.944 172.856 118.21 172.991 118.534C173.126 118.858 173.141 119.219 173.033 119.553C172.615 121.129 172.16 122.702 171.669 124.273C171.587 124.51 171.481 124.737 171.351 124.951C171.234 125.206 171.039 125.418 170.794 125.557C170.549 125.696 170.267 125.754 169.987 125.724L166.661 125.444C166.58 125.444 166.491 125.444 166.41 125.444C165.943 125.358 165.461 125.415 165.027 125.607C164.593 125.798 164.227 126.116 163.976 126.519C163.416 127.3 162.767 127.992 162.155 128.728C161.87 129.056 161.681 129.454 161.607 129.881C161.533 130.308 161.577 130.747 161.734 131.151C162.088 132.189 162.435 133.228 162.737 134.281C163.04 135.334 162.878 135.901 161.882 136.49C160.451 137.322 158.998 138.11 157.531 138.876C157.212 139.094 156.82 139.178 156.439 139.111C156.058 139.043 155.719 138.829 155.495 138.515C154.846 137.823 154.249 137.086 153.644 136.365C152.339 134.803 152.029 134.686 150.008 134.943L147.648 135.267C147.273 135.305 146.913 135.437 146.603 135.652C146.293 135.868 146.044 136.158 145.878 136.497C145.458 137.329 145.067 138.176 144.624 138.993C144.389 139.418 144.115 139.82 143.806 140.194C143.671 140.384 143.479 140.527 143.258 140.602C143.037 140.677 142.798 140.681 142.574 140.613C140.937 140.15 139.292 139.686 137.648 139.207C137.424 139.134 137.211 139.032 137.013 138.905C136.76 138.783 136.551 138.585 136.417 138.337C136.283 138.09 136.231 137.807 136.269 137.528C136.357 136.431 136.453 135.319 136.541 134.251C136.541 133.912 136.541 133.581 136.541 133.25C136.55 132.977 136.495 132.707 136.379 132.46C136.264 132.213 136.092 131.997 135.878 131.829C134.948 131.092 134.027 130.356 133.097 129.619C132.835 129.401 132.518 129.256 132.181 129.202C131.844 129.148 131.498 129.185 131.18 129.31C130.14 129.656 129.085 129.973 128.038 130.304L127.92 130.341C126.541 130.702 126.076 130.562 125.368 129.325C124.587 127.955 123.856 126.549 123.156 125.135C122.941 124.809 122.864 124.411 122.943 124.028C123.022 123.646 123.25 123.31 123.576 123.095C124.373 122.359 125.191 121.681 126.047 121.033C126.463 120.75 126.786 120.352 126.977 119.887C127.169 119.423 127.22 118.912 127.124 118.419C126.954 117.293 126.836 116.159 126.688 115.032C126.67 114.797 126.592 114.57 126.463 114.372C126.335 114.174 126.159 114.011 125.951 113.898C124.955 113.368 123.952 112.852 123.001 112.315C122.303 112.033 121.73 111.51 121.386 110.842L121.268 110.474ZM157.929 113.964C157.819 112.541 157.428 111.153 156.778 109.882C156.128 108.611 155.231 107.481 154.141 106.557C153.05 105.634 151.787 104.936 150.424 104.504C149.062 104.071 147.627 103.913 146.203 104.038C143.385 104.345 140.795 105.728 138.975 107.898C137.155 110.068 136.246 112.856 136.438 115.68C136.677 118.511 138.023 121.134 140.185 122.982C142.346 124.83 145.149 125.754 147.987 125.555C154.92 125.01 158.607 118.677 157.929 113.964Z" fill="#03C7E8"/>
<path d="M125.973 28.3608C126.15 27.6244 126.327 26.9617 126.512 26.2621C126.608 25.9013 126.726 25.5258 126.844 25.187C126.904 24.9656 127.039 24.7716 127.226 24.6375C127.412 24.5035 127.639 24.4375 127.869 24.4507C128.429 24.4507 128.982 24.539 129.543 24.5832C129.841 24.6271 130.142 24.6419 130.443 24.6274C130.664 24.6183 130.875 24.5324 131.04 24.3844C131.63 23.729 132.183 23.0516 132.729 22.3667C132.821 22.2412 132.881 22.0949 132.903 21.9407C132.925 21.7865 132.908 21.6293 132.854 21.4831C132.655 20.8204 132.441 20.1723 132.25 19.517C132.169 19.2617 132.124 18.9966 132.117 18.729C132.117 18.6316 132.137 18.5352 132.175 18.4455C132.213 18.3558 132.268 18.2744 132.338 18.2062C133.305 17.4604 134.379 16.8646 135.524 16.4389C135.692 16.37 135.878 16.3587 136.052 16.4067C136.227 16.4546 136.381 16.5592 136.49 16.704C136.962 17.2489 137.449 17.7791 137.899 18.3388C138.048 18.5509 138.256 18.7156 138.496 18.8135C138.737 18.9114 139 18.9383 139.256 18.8911C139.993 18.7806 140.731 18.707 141.468 18.6112C141.602 18.5936 141.729 18.5434 141.838 18.465C141.947 18.3867 142.036 18.2826 142.095 18.162C142.324 17.757 142.538 17.3447 142.766 16.9323C142.995 16.5199 143.15 16.1959 143.356 15.8867C143.444 15.7118 143.59 15.5732 143.769 15.4952C143.948 15.4171 144.149 15.4045 144.337 15.4596C145.384 15.7247 146.424 16.0045 147.457 16.3064C147.652 16.3678 147.82 16.4943 147.932 16.6645C148.045 16.8347 148.096 17.0384 148.076 17.2416C148.076 17.8086 147.988 18.3682 147.944 18.9352C147.944 19.2003 147.899 19.4728 147.899 19.7379C147.892 19.9095 147.926 20.0804 147.998 20.2365C148.07 20.3926 148.177 20.5296 148.312 20.6363C148.888 21.1002 149.47 21.5494 150.023 22.0354C150.185 22.1818 150.384 22.2818 150.598 22.3246C150.812 22.3674 151.034 22.3514 151.24 22.2784C151.978 22.0575 152.656 21.8292 153.364 21.6156C153.595 21.5154 153.857 21.5093 154.092 21.5988C154.328 21.6882 154.519 21.866 154.625 22.0943C155.112 22.9264 155.577 23.7658 156.027 24.6053C156.109 24.718 156.168 24.8462 156.199 24.9821C156.231 25.1181 156.235 25.259 156.211 25.3964C156.187 25.5339 156.135 25.6651 156.059 25.7823C155.983 25.8994 155.884 26 155.768 26.078C155.422 26.4021 155.031 26.6892 154.684 26.9985C154.338 27.3078 154.168 27.4551 153.947 27.7349C153.843 27.8347 153.764 27.9571 153.715 28.0925C153.667 28.2278 153.65 28.3726 153.667 28.5154C153.748 29.2518 153.814 29.9882 153.91 30.7835C153.934 30.9887 154.011 31.1844 154.132 31.3519C154.254 31.5194 154.416 31.6532 154.603 31.7407L155.909 32.374C156.174 32.5139 156.44 32.6539 156.69 32.8159C156.874 32.9155 157.017 33.0759 157.095 33.2693C157.173 33.4628 157.181 33.6774 157.118 33.8762C156.853 34.8188 156.587 35.754 156.307 36.6892C156.26 36.8315 156.195 36.9675 156.115 37.0942C156.044 37.2476 155.927 37.3753 155.781 37.4597C155.634 37.5441 155.465 37.581 155.296 37.5655L153.261 37.3814H153.113C152.831 37.3258 152.538 37.3581 152.274 37.474C152.01 37.5898 151.788 37.7837 151.638 38.0294C151.307 38.4933 150.901 38.9204 150.547 39.3696C150.377 39.5704 150.265 39.8129 150.221 40.0718C150.177 40.3308 150.203 40.5968 150.296 40.8423C150.51 41.4609 150.717 42.0868 150.901 42.7201C150.962 42.8401 150.997 42.9718 151.004 43.1064C151.011 43.241 150.988 43.3754 150.939 43.5008C150.889 43.6262 150.814 43.7396 150.717 43.8335C150.62 43.9274 150.504 43.9997 150.377 44.0455C149.522 44.5463 148.652 45.0175 147.767 45.5183C147.573 45.6442 147.338 45.6914 147.111 45.6504C146.883 45.6093 146.68 45.483 146.542 45.2974C146.159 44.8776 145.805 44.4432 145.429 44.0087C144.647 43.0662 144.463 42.9925 143.216 43.1545L141.8 43.346C141.575 43.3668 141.358 43.4455 141.172 43.5746C140.986 43.7036 140.837 43.8785 140.738 44.0824C140.487 44.5757 140.251 45.0838 140.001 45.5551C139.861 45.8163 139.695 46.063 139.507 46.2915C139.425 46.4051 139.311 46.4908 139.179 46.537C139.047 46.5831 138.904 46.5874 138.769 46.5492L135.819 45.7024C135.685 45.6546 135.557 45.5929 135.436 45.5183C135.281 45.4483 135.153 45.3319 135.068 45.1853C134.983 45.0387 134.947 44.8693 134.964 44.7009C135.015 44.0455 135.074 43.3902 135.126 42.7348C135.126 42.536 135.126 42.3298 135.126 42.131C135.13 41.9675 135.097 41.8052 135.028 41.6569C134.959 41.5086 134.856 41.3785 134.728 41.2768L133.053 39.9587C132.897 39.8266 132.707 39.7391 132.504 39.7054C132.302 39.6717 132.094 39.6931 131.903 39.7672C131.276 39.9734 130.642 40.1649 130.015 40.3637H129.941C129.115 40.5846 128.835 40.4962 128.407 39.7598C127.979 39.0235 127.5 38.0883 127.072 37.2415C127.005 37.1451 126.959 37.0362 126.935 36.9213C126.911 36.8065 126.911 36.688 126.935 36.5731C126.958 36.4583 127.005 36.3493 127.071 36.2528C127.138 36.1563 127.224 36.0743 127.323 36.0117C127.802 35.5846 128.297 35.1649 128.798 34.7746C129.047 34.6042 129.241 34.3651 129.356 34.0867C129.471 33.8082 129.503 33.5023 129.447 33.2061C129.344 32.5287 129.277 31.8438 129.189 31.1664C129.175 31.0234 129.126 30.886 129.047 30.7665C128.967 30.647 128.859 30.5491 128.732 30.4816C128.134 30.1649 127.53 29.8556 126.932 29.5316C126.518 29.3683 126.175 29.0628 125.966 28.6701L125.973 28.3608ZM148.003 30.4447C147.936 29.5904 147.7 28.7578 147.309 27.9949C146.918 27.2321 146.38 26.5541 145.725 26.0002C145.07 25.4463 144.312 25.0275 143.494 24.7678C142.676 24.5082 141.814 24.4129 140.959 24.4875C139.264 24.6735 137.706 25.5038 136.607 26.8063C135.509 28.1088 134.954 29.7835 135.059 31.483C135.203 33.1846 136.011 34.7614 137.31 35.8722C138.609 36.983 140.293 37.5384 141.999 37.4182C142.856 37.3645 143.693 37.1402 144.461 36.7584C145.23 36.3766 145.914 35.8451 146.473 35.1952C147.033 34.5454 147.456 33.7902 147.719 32.9744C147.982 32.1585 148.078 31.2984 148.003 30.4447Z" fill="#03C7E8"/>
<path d="M47.1641 119.318L47.3706 105.916L60.4022 109.104L61.9657 117.58L63.7136 127.049L55.3651 123.147L47.1641 119.318Z" fill="white"/>
<path d="M63.7137 127.418C63.6601 127.416 63.6074 127.403 63.5588 127.381L47.0093 119.649C46.9458 119.618 46.8922 119.569 46.8545 119.51C46.8167 119.45 46.7963 119.381 46.7954 119.31L47.0019 105.908C47.0055 105.853 47.0204 105.799 47.0458 105.749C47.0711 105.7 47.1064 105.656 47.1494 105.621C47.1933 105.589 47.2437 105.566 47.2971 105.554C47.3505 105.543 47.4058 105.543 47.4592 105.555L60.4687 108.751C60.5372 108.767 60.5996 108.802 60.6481 108.853C60.6965 108.905 60.729 108.969 60.7415 109.038L64.0529 126.983C64.0671 127.05 64.0622 127.119 64.0387 127.183C64.0152 127.247 63.9741 127.302 63.9202 127.344C63.8591 127.386 63.7878 127.412 63.7137 127.418ZM47.5329 119.119L63.2269 126.482L60.0852 109.472L47.732 106.446L47.5329 119.119Z" fill="#231F20"/>
<path d="M49.918 113.751L54.3313 110.349L20.5922 66.7156L16.179 70.1176L49.918 113.751Z" fill="#E1DDDB"/>
<path d="M49.9149 114.126H49.8633C49.815 114.122 49.7681 114.107 49.7261 114.083C49.684 114.059 49.6478 114.026 49.6199 113.986L15.8793 70.3488C15.8497 70.3104 15.8279 70.2666 15.8153 70.2199C15.8026 70.1731 15.7993 70.1243 15.8056 70.0763C15.8205 69.9808 15.8705 69.8942 15.9457 69.8333L20.3707 66.4313C20.408 66.4011 20.451 66.3788 20.4972 66.3657C20.5434 66.3527 20.5918 66.3492 20.6394 66.3554C20.687 66.3616 20.7328 66.3774 20.7741 66.4018C20.8154 66.4263 20.8513 66.4588 20.8796 66.4975L54.6202 110.128C54.6805 110.204 54.7081 110.301 54.6971 110.397C54.686 110.494 54.6372 110.582 54.5612 110.643L50.1362 114.045C50.0739 114.097 49.9958 114.125 49.9149 114.126ZM16.6832 70.1868L49.9813 113.228L53.8089 110.282L20.5182 67.2339L16.6832 70.1868Z" fill="#231F20"/>
<path d="M20.5847 66.7185L26.6617 65.474L60.4023 109.104L54.3253 110.356L20.5847 66.7185Z" fill="#231F20"/>
<path d="M54.3253 110.724C54.2682 110.724 54.2119 110.71 54.1608 110.684C54.1097 110.659 54.0651 110.622 54.0303 110.577L20.2897 66.9467C20.2526 66.8964 20.2287 66.8376 20.2201 66.7758C20.2115 66.7139 20.2185 66.6508 20.2405 66.5923C20.2625 66.5339 20.2987 66.4818 20.3459 66.4408C20.3932 66.3998 20.4499 66.3712 20.5109 66.3576L26.5879 65.1132C26.6557 65.0984 26.7262 65.103 26.7914 65.1265C26.8566 65.1499 26.9139 65.1913 26.9567 65.2457L60.6973 108.883C60.7346 108.933 60.7588 108.991 60.7675 109.053C60.7762 109.114 60.7692 109.177 60.7471 109.235C60.725 109.293 60.6886 109.344 60.6412 109.385C60.5938 109.425 60.537 109.452 60.4761 109.465L54.3991 110.717L54.3253 110.724ZM21.2411 66.9615L54.4802 109.951L59.7533 108.861L26.5437 65.879L21.2411 66.9615Z" fill="#231F20"/>
<path d="M13.4236 75.6801L16.1745 70.1279L49.9151 113.758L47.1642 119.31L13.4236 75.6801Z" fill="#231F20"/>
<path d="M55.3652 123.147L55.8815 120.614L59.8787 117.536L61.9659 117.58L63.7137 127.049L55.3652 123.147Z" fill="#D23228"/>
<path d="M63.7135 127.418C63.66 127.416 63.6073 127.403 63.5587 127.381L55.2028 123.478C55.1293 123.442 55.0699 123.383 55.0338 123.31C54.9978 123.236 54.9872 123.153 55.0037 123.073L55.5273 120.54C55.5432 120.455 55.5906 120.378 55.6601 120.326L59.6499 117.248C59.7195 117.2 59.8013 117.172 59.8859 117.167L61.9804 117.219C62.0637 117.219 62.144 117.249 62.2074 117.303C62.2708 117.357 62.3132 117.431 62.327 117.513L64.0749 126.983C64.0891 127.05 64.0842 127.119 64.0607 127.183C64.0372 127.247 63.9961 127.302 63.9422 127.344C63.8748 127.39 63.7953 127.416 63.7135 127.418ZM55.7781 122.941L63.2268 126.416L61.6633 117.941L59.9965 117.904L56.2132 120.849L55.7781 122.941Z" fill="#231F20"/>
<path d="M32.9156 17.8822C21.0935 20.3785 12.9589 29.2003 14.7436 37.5876C15.7761 42.455 19.9061 46.1074 25.5554 47.8231C27.4286 51.019 31.2194 54.8334 38.8746 57.6537C36.5524 55.1672 34.8583 52.1629 33.9334 48.8909C35.7585 48.838 37.5752 48.6211 39.3614 48.2429C51.1614 45.7466 59.3181 36.9248 57.5408 28.5375C55.7634 20.1503 44.7304 15.3859 32.9156 17.8822Z" fill="white"/>
<path d="M38.8672 57.9998C38.8257 58.0074 38.7832 58.0074 38.7418 57.9998C32.3255 55.6361 27.812 52.3224 25.3045 48.1324C19.4045 46.2841 15.3925 42.4771 14.3748 37.6612C12.531 29.0898 20.8426 20.0545 32.8344 17.4993C44.8335 14.9662 56.073 19.8704 57.9094 28.4418C59.7458 37.0132 51.4415 46.0411 39.4719 48.5816C37.8182 48.9325 36.1384 49.1467 34.4495 49.2223C35.3938 52.255 37.0067 55.0379 39.1695 57.3665C39.2226 57.4176 39.2591 57.4834 39.2744 57.5554C39.2896 57.6274 39.283 57.7023 39.2552 57.7704C39.2274 57.8386 39.1798 57.8969 39.1185 57.9378C39.0572 57.9787 38.9851 58.0003 38.9114 57.9998H38.8672ZM32.9671 18.2357C21.381 20.6952 13.3644 29.3328 15.0975 37.5066C16.0636 42.0868 19.9134 45.7171 25.6585 47.4697C25.7454 47.4994 25.8204 47.5562 25.8724 47.6317C28.0849 51.4166 32.0232 54.4873 37.5913 56.7627C35.7367 54.47 34.3692 51.8242 33.5719 48.9866C33.5574 48.9328 33.5553 48.8764 33.5657 48.8217C33.5762 48.7669 33.599 48.7153 33.6324 48.6706C33.6658 48.6259 33.7088 48.5894 33.7584 48.5638C33.808 48.5382 33.8627 48.5241 33.9185 48.5227C35.7188 48.4688 37.5107 48.2544 39.2728 47.8821C50.8737 45.4299 58.905 36.7849 57.1719 28.6112C55.4388 20.4374 44.5901 15.7909 32.9893 18.2357H32.9671Z" fill="#231F20"/>
<path d="M201.309 113.64L145.561 94.9215L169.434 24.053L213.913 38.994L221.31 54.259L201.309 113.64Z" fill="#231F20"/>
<path d="M201.331 114.008H201.213L145.466 95.2824C145.42 95.2674 145.377 95.2435 145.341 95.2119C145.304 95.1804 145.274 95.1418 145.253 95.0986C145.232 95.0553 145.219 95.0083 145.217 94.9602C145.214 94.912 145.221 94.8638 145.237 94.8184L169.102 23.9499C169.136 23.858 169.204 23.7828 169.292 23.7401C169.38 23.6975 169.481 23.6909 169.574 23.7217L214.053 38.6553C214.1 38.6713 214.143 38.6965 214.179 38.7294C214.216 38.7623 214.246 38.8022 214.267 38.8468L221.642 54.1118C221.679 54.2014 221.679 54.3019 221.642 54.3916L201.634 113.773C201.619 113.819 201.595 113.862 201.564 113.899C201.532 113.935 201.493 113.965 201.449 113.986C201.411 113.999 201.371 114.007 201.331 114.008ZM146.019 94.6933L201.073 113.176L220.904 54.2664L213.647 39.2886L169.663 24.5611L146.019 94.6933Z" fill="#231F20"/>
<path d="M195.697 117.3L139.949 98.5813L163.822 27.7128L208.3 42.6464L215.698 57.9188L195.697 117.3Z" fill="white"/>
<path d="M195.697 117.646C195.658 117.653 195.618 117.653 195.579 117.646L139.831 98.9274C139.739 98.8956 139.664 98.8291 139.621 98.7422C139.579 98.6554 139.572 98.5553 139.602 98.4635L163.468 27.595C163.502 27.5021 163.571 27.4257 163.66 27.3814C163.702 27.3616 163.749 27.3514 163.796 27.3514C163.843 27.3514 163.89 27.3616 163.932 27.3814L208.418 42.3151C208.465 42.3307 208.509 42.3557 208.545 42.3887C208.582 42.4216 208.612 42.4617 208.632 42.5065L216.007 57.7715C216.025 57.8147 216.035 57.861 216.035 57.9078C216.035 57.9545 216.025 58.0008 216.007 58.044L196.006 117.432C195.992 117.478 195.968 117.52 195.936 117.555C195.904 117.591 195.866 117.619 195.822 117.639C195.781 117.649 195.738 117.652 195.697 117.646ZM140.384 98.3236L195.438 116.814L215.27 57.9041L208.005 42.9115L164.05 28.1767L140.384 98.3236Z" fill="#231F20"/>
<path d="M208.3 42.6464L204.067 54.0087L215.698 57.9188L208.3 42.6464Z" fill="white"/>
<path d="M215.698 58.2796C215.659 58.2868 215.619 58.2868 215.58 58.2796L203.949 54.3695C203.903 54.3551 203.86 54.3313 203.823 54.2997C203.786 54.268 203.757 54.2291 203.735 54.1854C203.699 54.0932 203.699 53.9905 203.735 53.8982L207.969 42.536C207.994 42.4677 208.039 42.4083 208.098 42.3652C208.157 42.322 208.228 42.2969 208.301 42.293C208.373 42.2916 208.444 42.311 208.505 42.3489C208.567 42.3867 208.616 42.4415 208.647 42.5065L216.022 57.7715C216.055 57.8371 216.066 57.9109 216.056 57.9832C216.045 58.0555 216.013 58.1229 215.963 58.1765C215.892 58.2443 215.796 58.2814 215.698 58.2796ZM204.539 53.7804L214.99 57.2634L208.352 43.5522L204.539 53.7804Z" fill="#231F20"/>
<path d="M205.83 63.3532C205.791 63.3604 205.751 63.3604 205.712 63.3532L165.562 49.8555C165.471 49.8237 165.396 49.7572 165.353 49.6704C165.31 49.5836 165.303 49.4834 165.334 49.3916C165.348 49.3451 165.371 49.302 165.403 49.2647C165.434 49.2275 165.472 49.197 165.516 49.175C165.559 49.153 165.607 49.14 165.655 49.1367C165.704 49.1334 165.752 49.14 165.798 49.156L205.948 62.639C206.046 62.6546 206.133 62.7084 206.191 62.7885C206.249 62.8685 206.273 62.9684 206.258 63.0661C206.242 63.1637 206.188 63.2511 206.108 63.3091C206.028 63.3671 205.928 63.391 205.83 63.3753V63.3532Z" fill="#D7D3D1"/>
<path d="M203.293 70.8863C203.254 70.8935 203.214 70.8935 203.175 70.8863L163.025 57.4033C162.934 57.3714 162.858 57.3053 162.814 57.2188C162.77 57.1323 162.761 57.0322 162.789 56.9394C162.804 56.8927 162.829 56.8494 162.861 56.8121C162.893 56.7748 162.932 56.7443 162.976 56.7223C163.02 56.7004 163.068 56.6874 163.117 56.6842C163.166 56.6811 163.215 56.6877 163.261 56.7038L203.411 70.1868C203.509 70.2024 203.596 70.2562 203.654 70.3363C203.713 70.4164 203.736 70.5162 203.721 70.6139C203.705 70.7115 203.651 70.799 203.571 70.857C203.491 70.915 203.391 70.9388 203.293 70.9232V70.8863Z" fill="#D7D3D1"/>
<path d="M200.756 78.4194C200.717 78.4266 200.677 78.4266 200.638 78.4194L160.488 64.9217C160.391 64.8904 160.309 64.8217 160.262 64.7305C160.215 64.6394 160.206 64.5333 160.238 64.4357C160.269 64.338 160.338 64.2568 160.429 64.2099C160.52 64.1629 160.627 64.1541 160.724 64.1853L200.874 77.6683C200.972 77.684 201.059 77.7377 201.117 77.8178C201.175 77.8979 201.199 77.9978 201.184 78.0954C201.168 78.1931 201.114 78.2805 201.034 78.3385C200.954 78.3965 200.854 78.4203 200.756 78.4047V78.4194Z" fill="#D7D3D1"/>
<path d="M198.219 85.982C198.18 85.9892 198.14 85.9892 198.101 85.982L157.951 72.499C157.86 72.467 157.784 72.4009 157.74 72.3144C157.696 72.228 157.687 72.1279 157.716 72.0351C157.73 71.9883 157.755 71.945 157.787 71.9077C157.819 71.8705 157.858 71.8399 157.902 71.818C157.946 71.796 157.994 71.7831 158.043 71.7799C158.092 71.7767 158.141 71.7833 158.188 71.7994L198.337 85.2456C198.435 85.2612 198.522 85.315 198.58 85.3951C198.639 85.4752 198.662 85.575 198.647 85.6727C198.631 85.7703 198.577 85.8578 198.497 85.9158C198.417 85.9738 198.317 85.9976 198.219 85.982Z" fill="#D7D3D1"/>
<path d="M195.682 93.4856C195.643 93.4928 195.603 93.4928 195.564 93.4856L155.414 80.0026C155.317 79.9714 155.235 79.9026 155.188 79.8115C155.141 79.7203 155.132 79.6143 155.164 79.5166C155.195 79.419 155.264 79.3377 155.355 79.2908C155.446 79.2438 155.553 79.235 155.65 79.2662L195.8 92.7492C195.898 92.7649 195.985 92.8186 196.043 92.8987C196.102 92.9788 196.125 93.0787 196.11 93.1763C196.094 93.274 196.04 93.3614 195.96 93.4194C195.88 93.4774 195.78 93.5012 195.682 93.4856Z" fill="#D7D3D1"/>
<path d="M181.337 97.0276C181.299 97.0353 181.258 97.0353 181.219 97.0276L152.877 87.521C152.829 87.5055 152.784 87.4807 152.745 87.4479C152.706 87.4151 152.674 87.375 152.651 87.3298C152.628 87.2847 152.614 87.2354 152.609 87.1848C152.605 87.1342 152.611 87.0833 152.627 87.035C152.642 86.9866 152.667 86.9418 152.7 86.903C152.733 86.8643 152.773 86.8324 152.818 86.8091C152.863 86.7859 152.913 86.7718 152.963 86.7676C153.014 86.7633 153.065 86.7691 153.113 86.7846L181.455 96.2986C181.548 96.3319 181.623 96.3998 181.666 96.4879C181.708 96.5759 181.715 96.677 181.684 96.7698C181.662 96.8443 181.616 96.9097 181.554 96.9561C181.491 97.0026 181.415 97.0276 181.337 97.0276Z" fill="#D7D3D1"/>
<path d="M136.136 64.9364C135.771 64.9364 135.414 64.8283 135.111 64.6257C134.808 64.4231 134.571 64.1351 134.432 63.7983C134.293 63.4615 134.257 63.0909 134.328 62.7336C134.4 62.3763 134.577 62.0483 134.835 61.7912C135.094 61.534 135.423 61.3593 135.781 61.2891C136.139 61.2189 136.51 61.2564 136.847 61.3968C137.184 61.5373 137.471 61.7744 137.673 62.0781C137.875 62.3818 137.981 62.7385 137.98 63.1029C137.978 63.5898 137.783 64.0562 137.437 64.3998C137.092 64.7435 136.624 64.9364 136.136 64.9364ZM136.136 61.9909C135.917 61.9909 135.704 62.0557 135.522 62.1771C135.34 62.2985 135.198 62.471 135.114 62.6728C135.03 62.8746 135.009 63.0967 135.051 63.311C135.094 63.5253 135.199 63.7221 135.354 63.8765C135.509 64.031 135.706 64.1362 135.92 64.1788C136.135 64.2215 136.357 64.1996 136.56 64.116C136.762 64.0324 136.934 63.8908 137.056 63.7092C137.178 63.5275 137.242 63.314 137.242 63.0955C137.241 62.8038 137.123 62.5248 136.916 62.3192C136.709 62.1137 136.428 61.9983 136.136 61.9983V61.9909Z" fill="#D7D3D1"/>
<path d="M31.7061 123.795C31.3411 123.796 30.9839 123.689 30.6798 123.488C30.3756 123.287 30.1381 123 29.9975 122.663C29.8568 122.327 29.8192 121.957 29.8895 121.599C29.9598 121.242 30.1348 120.913 30.3924 120.655C30.65 120.396 30.9785 120.22 31.3363 120.149C31.6942 120.077 32.0653 120.113 32.4026 120.252C32.7399 120.391 33.0283 120.627 33.2312 120.93C33.4342 121.233 33.5425 121.589 33.5425 121.954C33.5425 122.441 33.3492 122.908 33.0051 123.253C32.6609 123.598 32.1938 123.793 31.7061 123.795ZM31.7061 120.849C31.487 120.848 31.2724 120.911 31.0895 121.032C30.9066 121.152 30.7637 121.324 30.6788 121.526C30.594 121.728 30.571 121.95 30.6128 122.165C30.6547 122.379 30.7595 122.577 30.9139 122.732C31.0683 122.887 31.2654 122.993 31.4802 123.037C31.695 123.08 31.9178 123.058 32.1204 122.975C32.3229 122.892 32.4961 122.75 32.618 122.568C32.7399 122.386 32.805 122.173 32.805 121.954C32.805 121.662 32.6894 121.382 32.4836 121.175C32.2777 120.968 31.9982 120.851 31.7061 120.849Z" fill="#D7D3D1"/>
<path d="M43.8822 65.8422C43.7844 65.8422 43.6906 65.8034 43.6214 65.7343C43.5523 65.6653 43.5134 65.5716 43.5134 65.474V61.6301C43.5134 61.5325 43.5523 61.4388 43.6214 61.3698C43.6906 61.3007 43.7844 61.2619 43.8822 61.2619C43.98 61.2619 44.0738 61.3007 44.1429 61.3698C44.2121 61.4388 44.2509 61.5325 44.2509 61.6301V65.474C44.249 65.571 44.2096 65.6636 44.1408 65.7322C44.0721 65.8009 43.9794 65.8403 43.8822 65.8422Z" fill="#D7D3D1"/>
<path d="M45.8071 63.8908H41.9574C41.8596 63.8908 41.7658 63.852 41.6966 63.7829C41.6275 63.7139 41.5886 63.6203 41.5886 63.5226C41.5886 63.425 41.6275 63.3313 41.6966 63.2623C41.7658 63.1932 41.8596 63.1544 41.9574 63.1544H45.8071C45.9049 63.1544 45.9987 63.1932 46.0679 63.2623C46.137 63.3313 46.1759 63.425 46.1759 63.5226C46.174 63.6197 46.1345 63.7122 46.0658 63.7809C45.997 63.8495 45.9043 63.8889 45.8071 63.8908Z" fill="#D7D3D1"/>
<path d="M177.532 136.792C177.434 136.792 177.34 136.753 177.271 136.684C177.202 136.615 177.163 136.521 177.163 136.423V132.58C177.163 132.482 177.202 132.388 177.271 132.319C177.34 132.25 177.434 132.211 177.532 132.211C177.63 132.211 177.724 132.25 177.793 132.319C177.862 132.388 177.901 132.482 177.901 132.58V136.423C177.899 136.521 177.859 136.613 177.791 136.682C177.722 136.75 177.629 136.79 177.532 136.792Z" fill="#D7D3D1"/>
<path d="M179.457 134.855H175.607C175.509 134.855 175.415 134.816 175.346 134.747C175.277 134.678 175.238 134.584 175.238 134.487C175.238 134.389 175.277 134.296 175.346 134.226C175.415 134.157 175.509 134.119 175.607 134.119H179.457C179.555 134.119 179.648 134.157 179.718 134.226C179.787 134.296 179.826 134.389 179.826 134.487C179.824 134.584 179.784 134.676 179.715 134.745C179.647 134.814 179.554 134.853 179.457 134.855Z" fill="#D7D3D1"/>
<path d="M106.658 21.4242C106.561 21.4242 106.467 21.3854 106.398 21.3163C106.328 21.2473 106.29 21.1536 106.29 21.056V17.2195C106.29 17.1218 106.328 17.0282 106.398 16.9591C106.467 16.8901 106.561 16.8513 106.658 16.8513C106.756 16.8513 106.85 16.8901 106.919 16.9591C106.988 17.0282 107.027 17.1218 107.027 17.2195V21.056C107.027 21.1536 106.988 21.2473 106.919 21.3163C106.85 21.3854 106.756 21.4242 106.658 21.4242Z" fill="#D7D3D1"/>
<path d="M108.583 19.5096H104.719C104.621 19.5077 104.529 19.4683 104.46 19.3997C104.391 19.331 104.352 19.2385 104.35 19.1414C104.35 19.0438 104.389 18.9501 104.458 18.8811C104.527 18.812 104.621 18.7732 104.719 18.7732H108.568C108.666 18.7732 108.76 18.812 108.829 18.8811C108.898 18.9501 108.937 19.0438 108.937 19.1414C108.937 19.2366 108.9 19.3281 108.834 19.3967C108.768 19.4653 108.678 19.5058 108.583 19.5096Z" fill="#D7D3D1"/>
<path d="M28.4979 38.913C28.337 38.9045 28.1768 38.8848 28.0186 38.8541C27.3188 38.7494 26.6532 38.4833 26.0746 38.0768C25.4959 37.6703 25.0201 37.1347 24.6851 36.5125C24.3829 36.9155 24.0026 37.2536 23.5667 37.5066C23.1308 37.7597 22.6483 37.9224 22.1481 37.9852C22.0503 37.9969 21.9518 37.9694 21.8744 37.9086C21.7969 37.8478 21.7468 37.7589 21.7351 37.6612C21.7233 37.5636 21.7509 37.4653 21.8118 37.3879C21.8726 37.3106 21.9618 37.2606 22.0596 37.2488C22.5247 37.1896 22.9705 37.0264 23.3637 36.7714C23.757 36.5165 24.0876 36.1762 24.3311 35.7761C24.0809 35.1698 23.9664 34.5163 23.9957 33.8612C24.025 33.2061 24.1974 32.5654 24.5007 31.9838C24.5313 31.9262 24.577 31.8781 24.6328 31.8444C24.6886 31.8107 24.7526 31.7927 24.8178 31.7923C24.8824 31.7921 24.9461 31.8082 25.0028 31.8391C25.0595 31.87 25.1075 31.9147 25.1423 31.969C25.4674 32.5455 25.6418 33.1944 25.6495 33.8559C25.6573 34.5174 25.4981 35.1701 25.1866 35.754V35.8203L25.2529 35.9675C25.504 36.553 25.9053 37.062 26.4162 37.4432C26.927 37.8245 27.5296 38.0646 28.163 38.1392C28.7964 38.2139 29.4384 38.1205 30.0242 37.8686C30.6099 37.6166 31.1188 37.2149 31.4996 36.7039C31.8435 36.31 32.1156 35.8589 32.3034 35.3711C32.0842 34.9881 31.9807 34.55 32.0056 34.1096C32.0305 33.6692 32.1826 33.2454 32.4436 32.8895C32.4887 32.8383 32.5465 32.7998 32.6112 32.7778C32.6759 32.7558 32.7453 32.7512 32.8123 32.7643C32.877 32.781 32.9362 32.8142 32.984 32.8607C33.0319 32.9072 33.0668 32.9653 33.0852 33.0294C33.2818 33.7827 33.2639 34.5758 33.0336 35.3195C33.18 35.5832 33.3934 35.8038 33.6524 35.9589C33.9113 36.114 34.2066 36.1983 34.5086 36.2032C34.8454 36.187 35.1723 36.0834 35.4568 35.9026C35.7413 35.7219 35.9737 35.4701 36.1311 35.1723C36.323 34.8463 36.4389 34.4814 36.4703 34.1045C36.3234 33.7209 36.2436 33.3149 36.2343 32.9042C36.2336 32.8214 36.2608 32.7407 36.3117 32.6752C36.3625 32.6097 36.434 32.5633 36.5146 32.5434C36.596 32.5227 36.6821 32.5304 36.7585 32.5653C36.835 32.6001 36.8972 32.6599 36.9349 32.7349C37.1222 33.12 37.2157 33.5439 37.2078 33.972C37.3933 34.3977 37.6673 34.7792 38.0117 35.0913C38.3074 35.3885 38.6633 35.6193 39.0555 35.7682C39.4476 35.9172 39.8671 35.9809 40.286 35.9551C40.7048 35.9293 41.1133 35.8146 41.4841 35.6187C41.855 35.4227 42.1798 35.15 42.4367 34.8188C42.6205 34.5928 42.7765 34.3456 42.9013 34.0824C42.7174 33.8712 42.5521 33.6446 42.4072 33.405C42.2543 33.1275 42.1888 32.8104 42.219 32.4952C42.2493 32.18 42.374 31.8811 42.5768 31.6377C42.699 31.5223 42.8571 31.452 43.0248 31.4387C43.1924 31.4253 43.3597 31.4695 43.4987 31.564C43.6274 31.6657 43.7323 31.7941 43.8062 31.9403C43.88 32.0866 43.9211 32.2472 43.9264 32.4109C43.9745 32.9077 43.9193 33.4091 43.7642 33.8836C44.0533 34.1605 44.4209 34.3415 44.8168 34.4022C45.2128 34.4628 45.6178 34.4 45.9767 34.2223C47.8057 33.4271 49.1996 30.6068 48.6833 28.7364C48.6699 28.6895 48.6659 28.6404 48.6717 28.5919C48.6774 28.5435 48.6927 28.4967 48.7168 28.4542C48.7408 28.4117 48.773 28.3744 48.8116 28.3445C48.8501 28.3146 48.8943 28.2926 48.9414 28.2798C49.0353 28.255 49.1352 28.2681 49.2194 28.3164C49.3037 28.3646 49.3654 28.4441 49.3913 28.5375C50.0108 30.7467 48.4326 33.9646 46.2643 34.8998C45.8155 35.1137 45.3155 35.1975 44.8213 35.1415C44.3271 35.0855 43.8586 34.892 43.4692 34.5832C43.3347 34.8176 43.1792 35.0395 43.0046 35.2459C42.6838 35.6532 42.2805 35.9883 41.8211 36.2292C41.3617 36.4702 40.8565 36.6117 40.3386 36.6443C39.8207 36.677 39.3017 36.6001 38.8156 36.4188C38.3295 36.2375 37.8872 35.9557 37.5176 35.592C37.3286 35.4185 37.1581 35.226 37.0087 35.0176C36.9445 35.1826 36.868 35.3426 36.7801 35.4963C36.5682 35.8887 36.2617 36.2221 35.8882 36.4664C35.5148 36.7107 35.0862 36.8581 34.6413 36.8954C34.2883 36.9061 33.9374 36.8375 33.6145 36.6948C33.2916 36.552 33.0048 36.3387 32.7754 36.0706C32.5747 36.4646 32.327 36.833 32.0379 37.1678C31.6094 37.697 31.071 38.1271 30.4598 38.4284C29.8486 38.7297 29.1793 38.8951 28.4979 38.913ZM24.8104 33.1472C24.7031 33.6621 24.7031 34.1935 24.8104 34.7084C24.9415 34.1965 24.944 33.6603 24.8178 33.1472H24.8104ZM43.0636 32.2268C43.0034 32.2922 42.9648 32.3744 42.9529 32.4624C42.8986 32.6642 42.9196 32.8788 43.0119 33.0662C43.0543 33.1401 43.1011 33.2115 43.1521 33.2798C43.1853 33.0354 43.1853 32.7878 43.1521 32.5434C43.1521 32.3078 43.0709 32.2415 43.0488 32.2268H43.0636Z" fill="#D7D3D1"/>
<path d="M128.791 84.0821C129.687 84.0821 130.413 83.3568 130.413 82.4621C130.413 81.5674 129.687 80.8421 128.791 80.8421C127.895 80.8421 127.168 81.5674 127.168 82.4621C127.168 83.3568 127.895 84.0821 128.791 84.0821Z" fill="#D7D3D1"/>
<path d="M57.7768 93.5519C58.6729 93.5519 59.3993 92.8266 59.3993 91.9319C59.3993 91.0371 58.6729 90.3118 57.7768 90.3118C56.8807 90.3118 56.1543 91.0371 56.1543 91.9319C56.1543 92.8266 56.8807 93.5519 57.7768 93.5519Z" fill="#D7D3D1"/>
</svg>
